<svg id="Layer_1" data-name="Layer 1" xmlns="http://www.w3.org/2000/svg" viewBox="0 0 499.5 257.6"><defs><style>.cls-1{fill:#fefefe;}.cls-2{fill:#d2d2d2;}.cls-3{fill:#4a9e36;}.cls-4{fill:#88b34d;}.cls-5{fill:#528546;}.cls-6{fill:#76a74c;}.cls-7{fill:#356d42;}.cls-8{fill:#639447;}.cls-9{fill:#3d7343;}.cls-10{fill:#a2ca4f;}.cls-11{fill:#92bc4e;}.cls-12{fill:#487d46;}.cls-13{fill:#99c34d;}.cls-14{fill:#73a548;}.cls-15{fill:#78a94f;}.cls-16{fill:#fbfcfa;}</style></defs><path class="cls-1" d="M710.24,361.24c0-1.67-.65-4,.18-4.82s3.15-.18,4.82-.18q245.55,0,491.11-.07c2.56,0,3.53.5,3,3.07a10.26,10.26,0,0,0,0,2Z" transform="translate(-710 -356)"/><ellipse class="cls-2" cx="249.79" cy="5.49" rx="352.92" ry="0.35"/><path class="cls-3" d="M866.25,613.55c-10.9,0-21.8.14-32.7,0-13.9-.23-22.66-15.09-16.38-27.49a19,19,0,0,1,21.23-9.81A19.23,19.23,0,0,1,853,594.27a5.11,5.11,0,0,1-4.55,5.33c-2.88.29-5-1.48-5.38-4.61-.35-2.9-1.15-5.5-3.62-7.38a8.81,8.81,0,0,0-10.26-.43,8.93,8.93,0,0,0,4,16.34c.91.08,1.83,0,2.74,0h62.42a13.81,13.81,0,0,1,2.73.15,4.94,4.94,0,0,1-.37,9.77,15.2,15.2,0,0,1-2.24.07H866.25Z" transform="translate(-710 -356)"/><path class="cls-3" d="M893.06,595.53c-5.25,0-10.49.11-15.73,0A21,21,0,1,1,891,558a21.42,21.42,0,0,1,7,9.83c1.25,3.48.16,6.35-2.78,7.44-2.76,1-5.34-.46-6.61-4-1.66-4.62-4.93-7.25-9.77-7.68a11,11,0,1,0-.77,21.9c10.57.06,21.14,0,31.71,0a5,5,0,0,1,2.23,9.56,7,7,0,0,1-2.94.42h-16Z" transform="translate(-710 -356)"/><path class="cls-3" d="M837.13,557.15c.15-10.35,7.55-18.5,16.88-19.48,3.42-.36,5.79,1.25,6.24,4.23s-1.38,5.18-4.81,5.69c-3.67.55-6.39,2.35-7.69,5.88s-.43,6.66,2,9.45,2.48,5.65.22,7.67-5.16,1.64-7.66-1A18.56,18.56,0,0,1,837.13,557.15Z" transform="translate(-710 -356)"/><path class="cls-4" d="M1091.77,561.47c0,3.24-.06,6.47,0,9.71,0,1.56-.15,2.37-2.1,2.41-2.17.06-1.94-1.14-1.94-2.5,0-4.58,0-9.15,0-13.72,0-.87-.63-2.35.78-2.49s3.28-.87,4.46,1.1c2.2,3.71,4.56,7.32,7,11.14.77-.92.46-1.83.48-2.64,0-2.41,0-4.82,0-7.23,0-1.38-.21-2.57,1.92-2.56,2,0,2.07.91,2,2.43-.07,4.66,0,9.31,0,14,0,.8.54,2.18-.68,2.28-1.51.13-3.33,1-4.5-1-2-3.26-4-6.49-6-9.73-.29-.47-.61-.93-.92-1.38Z" transform="translate(-710 -356)"/><path class="cls-5" d="M996,554.58a9.16,9.16,0,0,1,9.47,9.64c0,5.67-3.91,9.5-9.59,9.47s-9.44-3.82-9.42-9.58S990.39,554.56,996,554.58Zm5.55,9.47c0-3.54-2.31-5.91-5.65-5.88s-5.54,2.41-5.55,6,2.28,6.06,5.78,6C999.51,570.07,1001.62,567.69,1001.59,564.05Z" transform="translate(-710 -356)"/><path class="cls-6" d="M1074,554.59a9.15,9.15,0,0,1,9.67,9.44c.09,5.65-3.79,9.65-9.4,9.68s-9.62-3.79-9.72-9.42A9.25,9.25,0,0,1,1074,554.59Zm.18,15.55a5.59,5.59,0,0,0,5.69-5.92,5.73,5.73,0,0,0-5.62-6.06c-3.42,0-5.81,2.46-5.77,6.09S1070.8,570.15,1074.16,570.14Z" transform="translate(-710 -356)"/><path class="cls-7" d="M944.05,565.27l5.13,7.77c-3.64,1-4,.85-5.82-2.16-.93-1.58-1.86-3.14-2.8-4.71-.26-.44-.58-.85-1.17-.62s-.38.68-.39,1.07c0,1.74-.1,3.5,0,5.23s-.79,1.68-2,1.67-2,.05-2-1.63c.1-5.15.06-10.3,0-15.45,0-1.09.17-1.72,1.47-1.66,1.91.1,3.83,0,5.73.09,3.21.24,4.9,1.61,5.42,4.17C948.26,562,947.44,563.46,944.05,565.27Zm-5-5c-.21,1.43,0,2.45,1.85,2.23,1.55-.17,3.18-.15,3.17-2.26s-1.68-2-3.21-2.21C938.87,557.82,938.82,558.91,939,560.29Z" transform="translate(-710 -356)"/><path class="cls-8" d="M1022.56,561.84c0-1.66.11-3.33,0-5s.47-2.12,2.09-2.13,2,.56,1.91,2c-.1,3.16,0,6.32,0,9.47,0,2.66,1,3.88,3.06,4,2.28.15,3.53-.94,3.68-3.67.19-3.32.15-6.65.08-10,0-1.4.39-1.91,1.83-1.86s2.23,0,2.15,1.81c-.16,3.74,0,7.49-.24,11.21-.32,4.18-3.15,6.15-7.92,5.92-4.07-.2-6.46-2.57-6.58-6.61C1022.51,565.33,1022.56,563.59,1022.56,561.84Z" transform="translate(-710 -356)"/><path class="cls-9" d="M952.94,564.1c0-2.58,0-5.15,0-7.73,0-1.16.32-1.62,1.55-1.59,2.57.08,5.14.09,7.72,0,1.37,0,1.64.54,1.67,1.77s-.48,1.77-1.75,1.65c-.9-.08-1.83,0-2.74,0-1.53-.09-2.64-.06-2.62,2.12s.9,2.36,2.56,2.19c.74-.08,1.5,0,2.23,0,1.34-.14,1.47.59,1.45,1.66s0,1.85-1.41,1.75c-.74-.06-1.49,0-2.24,0-2.4,0-3.09,1-2.52,3.38.2.8.66.82,1.26.82,1.33,0,2.66.07,4,0s1.82.18,1.8,1.6-.33,1.94-1.81,1.88c-2.49-.11-5-.1-7.47,0-1.36.06-1.7-.46-1.66-1.71C953,569.24,952.94,566.67,952.94,564.1Z" transform="translate(-710 -356)"/><path class="cls-10" d="M1154.89,564.17a13.84,13.84,0,0,1-.84,5.37,6,6,0,0,1-5.81,4.22,5.82,5.82,0,0,1-6-4.24,16,16,0,0,1,0-10.73,5.81,5.81,0,0,1,6.06-4.2c2.82,0,4.7,1.43,5.82,4.21A14.68,14.68,0,0,1,1154.89,564.17Zm-9.68.09a13.33,13.33,0,0,0,.43,3.93c.42,1.17,1.06,2.09,2.46,2.07a2.42,2.42,0,0,0,2.39-1.84,14.46,14.46,0,0,0,0-8.54,2.34,2.34,0,0,0-2.35-1.86c-1.4,0-2.05.92-2.47,2.07A13.32,13.32,0,0,0,1145.21,564.26Z" transform="translate(-710 -356)"/><path class="cls-11" d="M1115.91,573.75c-4.57,0-6.57-1.6-7.16-5-.16-.9-.53-2,1-2,1,0,2.61-1,2.82,1.21a2.3,2.3,0,0,0,2.13,2.38c1.19.1,2.36,0,3.11-1.11a2.66,2.66,0,0,0-1.7-4.07c-.82-.23-1.4-.32-1.33-1.34.06-.82-.11-1.63,1.14-1.8s1.75-1.18,1.62-2.4a1.78,1.78,0,0,0-1.82-1.7c-1.19-.11-2.3.16-2.53,1.46-.41,2.38-2.22,1.48-3.25,1.2-1.67-.44-.52-1.86-.23-2.67,1.1-3.14,5.31-4.36,8.7-2.65,2.9,1.46,3.48,4.14,1.5,7.3-.38.61-.55.88.11,1.35,2.37,1.68,2.6,4,1.54,6.42A5.78,5.78,0,0,1,1115.91,573.75Z" transform="translate(-710 -356)"/><path class="cls-12" d="M975.3,568.88c1.49-4.26,3-8,4.05-11.77.59-2.11,1.71-2.49,3.58-2.34,1,.08,1.35.33,1,1.34-2,5.43-4,10.86-6,16.31-.63,1.74-2.06.87-3.16,1.08s-1.76-.4-2.15-1.47c-1.76-4.91-3.63-9.78-5.32-14.71-.24-.69-1.67-2,0-2.4,1.29-.34,3.11-.85,3.82,1.44C972.28,560.39,973.74,564.35,975.3,568.88Z" transform="translate(-710 -356)"/><path class="cls-13" d="M1136.57,554.73l-4.65,6.19c2.36.28,4.37.88,5.63,2.83a6.41,6.41,0,0,1-3.61,9.62,6.78,6.78,0,0,1-7.35-1.73,5.93,5.93,0,0,1-1.23-6.92c1.6-3.49,4.27-6.31,6.58-9.33C1132.92,554.11,1134.59,554.92,1136.57,554.73Zm-1.67,12.46a3.05,3.05,0,0,0-3.24-3.28,3.09,3.09,0,0,0-3.3,3.25,2.82,2.82,0,0,0,3.09,3.11A3.09,3.09,0,0,0,1134.9,567.19Z" transform="translate(-710 -356)"/><path class="cls-6" d="M1099,592.36c0-2.08,0-4.11,0-6.15,0-1-.63-2.44,1.4-2.5s1.51,1.31,1.53,2.37c0,3.07.06,6.15,0,9.22,0,.76.68,2.05-.77,2.21-1.15.12-2.46.48-3.27-1-1-1.89-2.22-3.7-3.39-5.51-.42-.65-.62-1.54-1.89-1.91,0,2.25,0,4.37,0,6.48,0,1.1.2,2.13-1.56,2.08-1.6,0-1.43-1-1.43-2,0-3.24,0-6.48,0-9.73,0-.75-.44-1.89.73-2.08s2.46-.46,3.3,1c1.24,2.16,2.61,4.24,4,6.34C1097.91,591.59,1098,592.26,1099,592.36Z" transform="translate(-710 -356)"/><path class="cls-6" d="M949,588.91c0,2.4-.06,4.79,0,7.18,0,1.28-.56,1.48-1.65,1.51s-1.35-.55-1.34-1.53c0-3.32,0-6.64,0-10,0-.79-.62-2,.73-2.29s2.55-.32,3.41,1.23c1.35,2.43,2.95,4.73,4.7,7.49.85-2.54.35-4.66.47-6.72.06-1.1-.16-2.16,1.57-2.12s1.42,1,1.42,2c0,3.24,0,6.48,0,9.71,0,.73.49,1.92-.72,2.06s-2.44.57-3.3-.93c-1.52-2.64-3.21-5.19-4.83-7.78Z" transform="translate(-710 -356)"/><path class="cls-14" d="M1044.65,565.9c0-1.24-.06-2.5,0-3.74.14-2.38.29-4.62-3.3-4-1.35.24-1-1-1-1.75s-.16-1.7,1.17-1.69c3.49,0,7,0,10.49,0,1.36,0,1.1,1,1.1,1.73s.24,1.93-1.1,1.7c-3.41-.6-3.55,1.34-3.42,3.91.16,3.24,0,6.49.07,9.73.06,1.59-.71,1.73-2,1.7s-2.15,0-2.06-1.64C1044.74,569.9,1044.66,567.9,1044.65,565.9Z" transform="translate(-710 -356)"/><path class="cls-6" d="M995.62,592.5c-1,0-1.78,0-2.5,0-1,.08-1.27-.44-1.27-1.35s.39-1.2,1.22-1.12h.25c1.63.16,4-.78,4.74.39,1.12,1.71.41,4.17.33,6.31,0,1.31-1.66,1-1.85.67-.81-1.42-1.5-.52-2.32-.16a7,7,0,0,1-8.53-2.67c-1.85-3.13-1-7.66,1.77-9.68s7.28-1.76,9.42.58c.39.43,1.22,1,.35,1.61s-1.44,1.43-2.53.28a3.79,3.79,0,0,0-5.21-.56c-1.83,1.21-2,3.1-1.64,5.1a3.62,3.62,0,0,0,3.32,3.19A3.72,3.72,0,0,0,995.62,592.5Z" transform="translate(-710 -356)"/><path class="cls-14" d="M1031.5,593.83v1.5c0,2.56,0,2.61-2.42,1.43-.64-.31-.89.1-1.3.26-3.52,1.45-7,.57-8.82-2.25a7.82,7.82,0,0,1,1-9.42,7.55,7.55,0,0,1,9.43-.3c.6.48,1.83,1,.93,2-.64.71-1.51,1.36-2.7.17a3.74,3.74,0,0,0-5.41-.16c-1.85,1.57-1.81,3.74-1,5.74s2.63,2.61,4.74,2.29a3.08,3.08,0,0,0,1.93-1,1.78,1.78,0,0,0,.51-1.06c-.08-.71-.75-.44-1.19-.5a6.68,6.68,0,0,0-1,0,1.11,1.11,0,0,1-1.1-1.8c1.52-1.43,3.56-.38,5.36-.62,1.17-.15,1,.79,1,1.52S1031.5,593.08,1031.5,593.83Z" transform="translate(-710 -356)"/><path class="cls-15" d="M1137.57,590.59a39,39,0,0,0,0-4.46c-.26-2.1.68-2.65,2.54-2.41a16.34,16.34,0,0,0,2,0c5.38,0,8.17,3.55,7,8.85a5.76,5.76,0,0,1-5.17,4.94c-6.14.83-6.33.67-6.33-5.43Zm2.92.11a15.08,15.08,0,0,1,0,2.23c-.35,2.16.9,2.28,2.49,2.07a3.18,3.18,0,0,0,3-3c.22-1.93.38-3.91-1.53-5.13-2.18-1.39-4-.37-4,2.14Z" transform="translate(-710 -356)"/><path class="cls-6" d="M983.45,597.37c-5.24,1.29-4.55-4.11-7.59-5.92,0,1.75-.05,3.25,0,4.75,0,1.13-.49,1.39-1.51,1.39s-1.52-.21-1.5-1.36c.06-3.65,0-7.3,0-11,0-.65-.12-1.49.85-1.49,2.06,0,4.18-.42,6.18.31a3.81,3.81,0,0,1,.92,6.62c-1,.75-1.07,1.19-.39,2.12C981.46,594.23,982.36,595.71,983.45,597.37Zm-7.59-9.69c-.05,1,0,1.94,1.36,1.78,1.08-.13,2.28-.26,2.26-1.72,0-1.27-1-1.5-2.08-1.59S975.71,586.56,975.86,587.68Z" transform="translate(-710 -356)"/><path class="cls-15" d="M1045,589.25c0,1.08,0,2.16,0,3.23,0,3.45-2,5.37-5.44,5.35-3.29,0-5.29-1.91-5.38-5.23-.08-2.4,0-4.81,0-7.22,0-1.11.26-1.66,1.52-1.68s1.53.54,1.5,1.65c-.05,2.33,0,4.65,0,7,0,1.57.57,2.77,2.44,2.77s2.44-1.14,2.47-2.75c0-2.15,0-4.31.08-6.47,0-1.06-.27-2.21,1.5-2.18s1.32,1.11,1.34,2.06C1045,586.92,1045,588.08,1045,589.25Z" transform="translate(-710 -356)"/><path class="cls-14" d="M1065.47,591.74c0,1.39,0,2.78,0,4.17,0,1-.07,1.71-1.42,1.69s-1.57-.44-1.55-1.61c0-3.56,0-7.13,0-10.7,0-.66-.1-1.48.86-1.49,2.06,0,4.17-.41,6.17.28a3.8,3.8,0,0,1,1,6.61c-1.2.88-1,1.41-.34,2.32.94,1.36,1.83,2.75,2.82,4.25-2,.68-3.48.39-4.42-1.66a42.68,42.68,0,0,0-2.46-4.15Zm1.3-2.26c1.32-.06,2.48-.33,2.48-1.67s-1.1-1.59-2.27-1.69c-1.47-.12-1.53.69-1.54,1.8S1065.7,589.69,1066.77,589.48Z" transform="translate(-710 -356)"/><path class="cls-8" d="M1009.56,564.16c0-2.57.09-5.15,0-7.71-.07-1.62.78-1.71,2-1.7s2.07,0,2,1.64c-.11,3.73.11,7.47-.09,11.19-.12,2.18.64,2.81,2.63,2.49.57-.09,1.17,0,1.74,0,1.39-.17,1.63.53,1.64,1.75s-.37,1.79-1.7,1.73c-2.15-.08-4.32-.1-6.47,0-1.51.08-1.8-.6-1.76-1.92C1009.62,569.14,1009.56,566.65,1009.56,564.16Z" transform="translate(-710 -356)"/><path class="cls-14" d="M1074,597.34c1.53-4.17,3.06-8.2,4.47-12.27.43-1.24,1.23-1.34,2.3-1.34s1.87.11,2.3,1.35c1.42,4.07,3,8.09,4.49,12.26-1.68.39-3.08.63-3.53-1.47-.3-1.38-1.44-1.28-2.39-1.14-1.37.2-3.34-.93-4,1S1075.87,597.83,1074,597.34Zm6.76-10.73c-.51,1.44-1,2.5-1.26,3.6-.18.63-1,1.45-.13,1.94a3,3,0,0,0,2.86,0c.77-.51,0-1.35-.19-2C1081.66,589,1081.22,588,1080.71,586.61Z" transform="translate(-710 -356)"/><path class="cls-14" d="M1060.44,597.34c-1.84.48-3,.38-3.62-1.61s-2.42-.85-3.71-1c-1-.11-2.33-.42-2.67,1.09-.47,2.1-1.86,1.88-3.56,1.53,1.55-4.22,3.1-8.33,4.56-12.47.46-1.33,1.45-1.08,2.42-1.15A1.76,1.76,0,0,1,1056,585C1057.38,589.08,1058.89,593.11,1060.44,597.34Zm-6.76-10.72c-.52,1.42-.94,2.48-1.28,3.57-.19.64-1,1.46-.11,1.95a3,3,0,0,0,2.85,0c.83-.51,0-1.34-.19-2C1054.65,589.06,1054.2,588,1053.68,586.62Z" transform="translate(-710 -356)"/><path class="cls-15" d="M961.88,590.47v-.75c0-6.59,0-6.57,6.62-6,1,.09,1.53.31,1.5,1.44s-.55,1.26-1.42,1.25-1.5,0-2.25,0c-1.07-.06-1.49.41-1.46,1.48s.35,1.4,1.41,1.58,3-1.13,3,1.23-2,1.12-3,1.27-1.4.49-1.43,1.53.39,1.67,1.58,1.57c.83-.07,1.67,0,2.5,0s1.05.54,1.06,1.3-.25,1.24-1.13,1.23c-1.92,0-3.83,0-5.74,0-1,0-1.26-.48-1.25-1.37C961.91,594.3,961.88,592.39,961.88,590.47Z" transform="translate(-710 -356)"/><path class="cls-15" d="M1115.59,590.69v-1c0-6.76,0-6.74,6.9-6,.88.09,1.37.27,1.39,1.28s-.52,1.44-1.52,1.4c-.75,0-1.5,0-2.24,0-1,0-1.58.27-1.54,1.41,0,1,.32,1.6,1.41,1.58.58,0,1.17,0,1.74,0,1-.06,1.57.17,1.54,1.35s-.74,1.31-1.65,1.27c-.5,0-1,0-1.5,0-1.19-.1-1.57.46-1.56,1.61s.43,1.49,1.47,1.43,1.83,0,2.74,0,1.1.48,1.1,1.26-.18,1.28-1.08,1.27c-2,0-4,0-6,0-1,0-1.24-.55-1.23-1.41C1115.6,594.34,1115.59,592.52,1115.59,590.69Z" transform="translate(-710 -356)"/><path class="cls-15" d="M1126.58,590.63v-4.47c0-.34,0-.67,0-1-.12-1.33.73-1.63,1.72-1.4,2.12.48,4.64-1.28,6.36,1,.43.57.15,1.68-1.11,1.66-.83,0-1.66,0-2.49,0-1,0-1.52.37-1.49,1.46s.45,1.36,1.45,1.59,3.26-1.24,3.16,1.34c-.09,2.22-2,1-3.12,1.16s-1.5.61-1.51,1.71.53,1.43,1.52,1.38c.75,0,1.5,0,2.24,0s1.42.14,1.44,1.19-.55,1.39-1.53,1.36c-1.74,0-3.49-.05-5.23,0-1.1,0-1.45-.44-1.42-1.47C1126.61,594.28,1126.58,592.46,1126.58,590.63Z" transform="translate(-710 -356)"/><path class="cls-6" d="M939.11,583.74c.83,0,1.66,0,2.49,0,1-.05,1.52.28,1.49,1.41s-.5,1.29-1.39,1.25c-.5,0-1,0-1.5,0-1,.06-2.21-.38-2.23,1.44s1,1.61,2.11,1.58c.42,0,.84,0,1.25,0,1-.08,1.26.4,1.26,1.34s-.44,1.32-1.36,1.27c-.58,0-1.17,0-1.75,0-1.28-.13-1.5.53-1.5,1.64s.39,1.5,1.46,1.42c.83-.06,1.66,0,2.49,0s1.18.36,1.15,1.19,0,1.36-1,1.35q-3,0-6,0c-.94,0-1.07-.53-1.06-1.28,0-3.74,0-7.49,0-11.23,0-1,.37-1.36,1.32-1.32S938.19,583.74,939.11,583.74Z" transform="translate(-710 -356)"/><path class="cls-6" d="M1060.48,564.18c0,2.57-.09,5.15,0,7.72.08,1.67-.86,1.61-2,1.63s-2-.11-2-1.7q.13-7.73,0-15.44c0-1.67.9-1.61,2.06-1.65s2,.14,2,1.72C1060.39,559,1060.48,561.6,1060.48,564.18Z" transform="translate(-710 -356)"/><path class="cls-15" d="M999.86,584.08c4.15-1.48,4.08,2.47,5.88,3.9,1.85-1.31,1.7-5.35,5.49-4.07.4.65-.19,1.07-.49,1.48-2.35,3.22-4.14,6.59-3.41,10.78.18,1.08-.41,1.49-1.46,1.41-.75-.05-1.71.07-1.49-1.06C1005.3,591.59,1002.53,588,999.86,584.08Z" transform="translate(-710 -356)"/><path class="cls-15" d="M1108.88,583.73c1.09,0,2.17,0,3.25,0,.83,0,1.46.07,1.47,1.15s-.19,1.68-1.36,1.51c-1.63-.24-2,.58-1.89,2a46.26,46.26,0,0,1,0,6.23c-.1,1,1.09,2.87-1.38,2.94s-1.42-1.75-1.49-2.8a63.86,63.86,0,0,1,0-6.49c0-1.28-.18-2.1-1.73-1.91-.91.12-1.6-.08-1.62-1.28,0-1.4.84-1.39,1.81-1.37S1107.89,583.73,1108.88,583.73Z" transform="translate(-710 -356)"/><path class="cls-6" d="M1153.2,597.71a1.44,1.44,0,0,1-1.39-1.72,1.38,1.38,0,0,1,1.49-1.35,1.48,1.48,0,0,1,1.54,1.6C1154.82,597.24,1154.12,597.66,1153.2,597.71Z" transform="translate(-710 -356)"/><path class="cls-16" d="M939,560.29c-.2-1.38-.15-2.47,1.81-2.24,1.53.19,3.19.08,3.21,2.21s-1.62,2.09-3.17,2.26C939,562.74,938.81,561.72,939,560.29Z" transform="translate(-710 -356)"/><path class="cls-16" d="M975.86,587.68c-.15-1.12.34-1.64,1.54-1.53s2.07.32,2.08,1.59c0,1.46-1.18,1.59-2.26,1.72C975.85,589.62,975.81,588.7,975.86,587.68Z" transform="translate(-710 -356)"/></svg>